<?xml version="1.0" encoding="UTF-8"?>
<svg xmlns="http://www.w3.org/2000/svg" xmlns:xlink="http://www.w3.org/1999/xlink" width="24px" height="24px" viewBox="0 0 24 24" version="1.1">
<g id="surface1">
<path style=" stroke:none;fill-rule:nonzero;fill:rgb(29.411765%,29.411765%,29.411765%);fill-opacity:1;" d="M 21.414062 20.148438 C 21.316406 19.796875 21.183594 19.480469 21.019531 19.199219 C 20.730469 18.707031 20.347656 18.324219 19.925781 18.019531 C 19.609375 17.789062 19.269531 17.601562 18.921875 17.441406 C 18.40625 17.199219 17.875 17.015625 17.382812 16.835938 C 16.894531 16.660156 16.441406 16.488281 16.085938 16.285156 L 16.046875 16.265625 C 15.921875 16.191406 15.804688 16.113281 15.707031 16.03125 C 15.554688 15.910156 15.441406 15.777344 15.355469 15.632812 C 15.273438 15.488281 15.21875 15.324219 15.195312 15.117188 C 15.179688 14.972656 15.171875 14.984375 15.171875 14.835938 C 15.171875 14.40625 15.234375 13.984375 15.304688 13.636719 C 15.527344 13.390625 15.726562 13.097656 15.917969 12.75 C 16.109375 12.398438 16.289062 11.988281 16.472656 11.503906 C 16.585938 11.453125 16.703125 11.390625 16.820312 11.3125 C 17.078125 11.144531 17.328125 10.902344 17.53125 10.582031 C 17.738281 10.261719 17.902344 9.863281 18.015625 9.375 C 18.046875 9.238281 18.0625 9.101562 18.0625 8.96875 C 18.0625 8.691406 17.996094 8.425781 17.882812 8.1875 C 17.808594 8.023438 17.707031 7.875 17.589844 7.734375 C 17.652344 7.523438 17.722656 7.234375 17.785156 6.894531 C 17.875 6.429688 17.945312 5.867188 17.945312 5.277344 C 17.945312 4.894531 17.917969 4.5 17.839844 4.113281 C 17.777344 3.820312 17.691406 3.53125 17.570312 3.253906 C 17.386719 2.835938 17.117188 2.445312 16.746094 2.121094 C 16.402344 1.820312 15.972656 1.582031 15.453125 1.429688 C 15.265625 1.210938 15.082031 1.027344 14.890625 0.871094 C 14.730469 0.738281 14.5625 0.621094 14.390625 0.53125 C 14.132812 0.390625 13.867188 0.296875 13.59375 0.238281 C 13.320312 0.183594 13.039062 0.164062 12.753906 0.164062 C 12.355469 0.164062 11.933594 0.203125 11.472656 0.246094 C 11.296875 0.265625 11.148438 0.285156 11.023438 0.308594 C 10.832031 0.339844 10.691406 0.375 10.578125 0.398438 C 10.519531 0.410156 10.46875 0.417969 10.421875 0.421875 C 10.371094 0.429688 10.324219 0.433594 10.269531 0.433594 C 10.195312 0.433594 10.113281 0.425781 10.003906 0.410156 C 9.664062 0.363281 9.355469 0.289062 9.113281 0.214844 C 8.992188 0.179688 8.890625 0.144531 8.808594 0.113281 C 8.765625 0.0976562 8.730469 0.0820312 8.703125 0.0703125 C 8.675781 0.0585938 8.652344 0.0507812 8.640625 0.0429688 C 8.601562 0.0234375 8.566406 0.015625 8.535156 0.0078125 C 8.503906 0 8.476562 0 8.449219 0 C 8.398438 0 8.363281 0.0078125 8.332031 0.015625 C 8.304688 0.0234375 8.28125 0.03125 8.261719 0.0390625 C 8.222656 0.0546875 8.195312 0.0703125 8.164062 0.0898438 C 8.109375 0.121094 8.058594 0.15625 8.003906 0.199219 C 7.90625 0.269531 7.800781 0.363281 7.6875 0.46875 C 7.519531 0.628906 7.339844 0.820312 7.175781 1.03125 C 7.09375 1.136719 7.015625 1.246094 6.949219 1.359375 C 6.878906 1.476562 6.816406 1.589844 6.769531 1.714844 C 6.53125 2.320312 6.375 2.878906 6.277344 3.390625 C 6.179688 3.90625 6.144531 4.378906 6.144531 4.8125 C 6.144531 5.519531 6.246094 6.121094 6.339844 6.628906 C 6.339844 6.652344 6.34375 6.675781 6.34375 6.699219 C 6.347656 6.746094 6.351562 6.796875 6.355469 6.847656 C 6.363281 6.921875 6.375 7 6.382812 7.066406 C 6.382812 7.101562 6.386719 7.128906 6.390625 7.152344 C 6.390625 7.164062 6.390625 7.171875 6.390625 7.179688 L 6.390625 7.234375 L 6.488281 7.648438 C 6.351562 7.796875 6.230469 7.957031 6.140625 8.140625 C 6.011719 8.390625 5.9375 8.671875 5.9375 8.96875 C 5.9375 9.101562 5.953125 9.238281 5.984375 9.375 C 6.058594 9.703125 6.15625 9.988281 6.277344 10.238281 C 6.453125 10.609375 6.675781 10.902344 6.925781 11.121094 C 7.121094 11.289062 7.324219 11.414062 7.527344 11.503906 C 7.710938 11.988281 7.890625 12.398438 8.082031 12.75 C 8.273438 13.097656 8.476562 13.390625 8.695312 13.632812 C 8.765625 13.984375 8.828125 14.40625 8.828125 14.839844 C 8.828125 14.984375 8.820312 14.972656 8.804688 15.117188 C 8.789062 15.257812 8.757812 15.382812 8.714844 15.492188 C 8.644531 15.65625 8.546875 15.792969 8.410156 15.925781 C 8.277344 16.058594 8.105469 16.179688 7.902344 16.292969 L 7.746094 16.375 C 7.578125 16.460938 7.390625 16.542969 7.195312 16.621094 C 6.738281 16.800781 6.21875 16.972656 5.695312 17.179688 C 5.300781 17.335938 4.898438 17.511719 4.519531 17.730469 C 4.234375 17.898438 3.957031 18.089844 3.707031 18.316406 C 3.328125 18.65625 3 19.082031 2.773438 19.609375 C 2.546875 20.136719 2.421875 20.757812 2.421875 21.496094 C 2.421875 21.597656 2.445312 21.699219 2.480469 21.789062 C 2.515625 21.875 2.5625 21.953125 2.617188 22.027344 C 2.722656 22.167969 2.855469 22.292969 3.019531 22.414062 C 3.308594 22.621094 3.691406 22.816406 4.1875 23.003906 C 4.933594 23.277344 5.929688 23.527344 7.222656 23.707031 C 8.511719 23.886719 10.09375 24 12 24 C 13.652344 24 15.0625 23.914062 16.246094 23.777344 C 17.136719 23.671875 17.902344 23.535156 18.550781 23.378906 C 19.039062 23.261719 19.460938 23.132812 19.820312 23 C 20.09375 22.898438 20.332031 22.792969 20.539062 22.683594 C 20.691406 22.601562 20.828125 22.519531 20.949219 22.433594 C 21.132812 22.304688 21.277344 22.171875 21.390625 22.019531 C 21.445312 21.941406 21.492188 21.863281 21.523438 21.777344 C 21.558594 21.6875 21.578125 21.59375 21.578125 21.496094 C 21.578125 20.996094 21.519531 20.546875 21.414062 20.148438 Z M 8.523438 4.085938 C 10.679688 4.554688 14.894531 3.65625 14.894531 3.65625 C 14.894531 3.65625 14.941406 4.6875 15.65625 5.628906 C 15.878906 5.917969 16.066406 6.332031 16.222656 6.761719 C 16.191406 6.75 16.097656 6.746094 16.007812 6.734375 C 15.910156 6.722656 15.894531 6.664062 15.882812 6.609375 C 15.859375 6.492188 15.75 6.457031 15.574219 6.433594 C 15.238281 6.390625 14.742188 6.359375 14.179688 6.386719 C 12.515625 6.46875 12.636719 6.621094 11.984375 6.621094 C 11.328125 6.621094 11.453125 6.46875 9.785156 6.386719 C 9.226562 6.359375 8.726562 6.390625 8.390625 6.433594 C 8.21875 6.457031 8.105469 6.492188 8.082031 6.609375 C 8.070312 6.664062 8.054688 6.722656 7.957031 6.734375 C 7.929688 6.738281 7.898438 6.742188 7.871094 6.746094 C 8.121094 6.082031 8.46875 5.25 8.523438 4.085938 Z M 15.550781 7.617188 C 15.550781 7.628906 15.542969 8.582031 14.894531 8.910156 C 14.671875 9.023438 14.394531 9.082031 14.113281 9.082031 C 13.816406 9.082031 13.542969 9.015625 13.328125 8.890625 C 13.085938 8.746094 12.925781 8.539062 12.847656 8.269531 C 12.828125 8.207031 12.808594 8.144531 12.792969 8.082031 C 12.742188 7.894531 12.601562 7.378906 12.898438 7.152344 C 13.085938 7.003906 13.675781 6.910156 14.234375 6.910156 C 14.75 6.910156 15.269531 6.980469 15.421875 7.140625 C 15.523438 7.246094 15.5625 7.433594 15.550781 7.617188 Z M 11.171875 8.082031 C 11.15625 8.144531 11.140625 8.207031 11.121094 8.269531 C 11.042969 8.539062 10.878906 8.746094 10.640625 8.890625 C 10.421875 9.015625 10.152344 9.082031 9.851562 9.082031 C 9.570312 9.082031 9.296875 9.023438 9.074219 8.910156 C 8.421875 8.582031 8.417969 7.628906 8.417969 7.617188 C 8.402344 7.433594 8.445312 7.246094 8.542969 7.140625 C 8.695312 6.980469 9.21875 6.910156 9.730469 6.910156 C 10.292969 6.910156 10.878906 7.003906 11.070312 7.152344 C 11.363281 7.378906 11.226562 7.894531 11.171875 8.082031 Z M 11.210938 20.1875 L 8.667969 16.738281 C 8.703125 16.71875 8.734375 16.691406 8.765625 16.667969 C 8.902344 16.558594 9.035156 16.433594 9.148438 16.296875 L 11.199219 17.230469 L 10.757812 17.949219 L 11.4375 18.65625 Z M 9.4375 15.820312 C 9.519531 15.632812 9.578125 15.421875 9.601562 15.199219 C 9.617188 15.023438 9.625 15.007812 9.625 14.839844 C 9.625 14.285156 9.542969 13.769531 9.453125 13.363281 L 9.429688 13.257812 L 9.351562 13.179688 C 9.160156 12.976562 8.972656 12.71875 8.785156 12.378906 C 8.597656 12.035156 8.414062 11.609375 8.222656 11.078125 L 8.160156 10.902344 L 7.984375 10.839844 C 7.859375 10.796875 7.742188 10.738281 7.628906 10.664062 C 7.457031 10.550781 7.292969 10.394531 7.140625 10.164062 C 6.992188 9.929688 6.859375 9.621094 6.761719 9.199219 C 6.742188 9.121094 6.734375 9.042969 6.734375 8.96875 C 6.734375 8.804688 6.777344 8.644531 6.855469 8.488281 C 6.917969 8.363281 7.007812 8.242188 7.117188 8.136719 C 7.300781 8.40625 7.453125 8.625 7.507812 8.679688 C 7.6875 8.855469 7.710938 8.4375 7.628906 7.972656 C 7.582031 7.714844 7.632812 7.445312 7.730469 7.140625 C 7.730469 7.21875 7.730469 7.285156 7.730469 7.300781 C 7.730469 7.347656 7.78125 7.410156 7.847656 7.410156 C 7.917969 7.410156 7.964844 7.445312 7.964844 7.492188 C 7.964844 7.574219 7.972656 8.726562 8.847656 9.191406 C 9.722656 9.660156 11.03125 9.484375 11.476562 8.449219 C 11.679688 7.980469 11.679688 7.523438 11.984375 7.523438 C 12.285156 7.523438 12.289062 7.980469 12.488281 8.449219 C 12.933594 9.484375 14.242188 9.660156 15.117188 9.191406 C 15.996094 8.726562 16 7.574219 16 7.492188 C 16 7.445312 16.050781 7.410156 16.117188 7.410156 C 16.1875 7.410156 16.238281 7.347656 16.238281 7.300781 C 16.238281 7.257812 16.238281 6.894531 16.238281 6.792969 C 16.554688 7.683594 16.726562 8.617188 16.726562 8.617188 C 16.726562 8.617188 16.820312 8.445312 16.957031 8.214844 C 17.042969 8.308594 17.109375 8.414062 17.160156 8.519531 C 17.226562 8.664062 17.265625 8.8125 17.265625 8.96875 C 17.265625 9.042969 17.257812 9.121094 17.238281 9.199219 C 17.175781 9.480469 17.09375 9.710938 17 9.902344 C 16.863281 10.191406 16.707031 10.386719 16.542969 10.535156 C 16.375 10.679688 16.203125 10.773438 16.019531 10.839844 L 15.84375 10.902344 L 15.78125 11.078125 C 15.589844 11.609375 15.402344 12.035156 15.214844 12.378906 C 15.027344 12.71875 14.839844 12.976562 14.648438 13.179688 L 14.570312 13.257812 L 14.546875 13.363281 C 14.457031 13.769531 14.375 14.285156 14.375 14.835938 C 14.375 15.007812 14.382812 15.023438 14.398438 15.199219 C 14.421875 15.402344 14.46875 15.59375 14.539062 15.769531 C 14.542969 15.777344 14.546875 15.785156 14.550781 15.792969 L 12.125 17.046875 Z M 12.992188 20.351562 L 12.742188 18.65625 L 13.417969 17.949219 L 12.976562 17.226562 L 14.832031 16.269531 C 14.882812 16.335938 14.9375 16.394531 14.996094 16.453125 C 15.101562 16.5625 15.21875 16.65625 15.339844 16.746094 Z M 12.992188 20.351562 "/>
<path style=" stroke:none;fill-rule:nonzero;fill:rgb(29.411765%,29.411765%,29.411765%);fill-opacity:1;" d="M 15.191406 11.296875 C 15.191406 11.296875 14.691406 11.066406 14.371094 10.566406 C 13.953125 9.925781 13.09375 9.179688 12.007812 9.773438 C 10.921875 9.179688 10.0625 9.925781 9.648438 10.566406 C 9.324219 11.066406 8.828125 11.296875 8.828125 11.296875 C 8.828125 11.296875 9.460938 12.019531 10.730469 11.59375 C 11.757812 11.25 12.007812 10.554688 12.007812 10.554688 C 12.007812 10.554688 12.261719 11.25 13.289062 11.59375 C 14.554688 12.019531 15.191406 11.296875 15.191406 11.296875 Z M 15.191406 11.296875 "/>
</g>
</svg>
